<svg version="1.1" id="Layer_1" xmlns="http://www.w3.org/2000/svg" xmlns:xlink="http://www.w3.org/1999/xlink" x="0px" y="0px"
	 width="100%" viewBox="0 0 1024 1024" enable-background="new 0 0 1024 1024" xml:space="preserve">
<path fill="#000000" opacity="1.000000" stroke="none" 
	d="
M659.204712,510.621399 
	C671.358521,513.243835 682.904175,516.456665 693.907715,521.334839 
	C696.430298,522.453186 698.331665,521.681091 700.492249,520.666626 
	C709.263489,516.548096 718.266968,514.969421 727.537048,518.906982 
	C729.807861,519.871521 732.635132,520.885925 733.837158,522.757080 
	C737.799316,528.924744 743.644470,529.220215 750.029907,529.733093 
	C778.882324,532.050354 784.763000,557.198120 779.436218,575.519287 
	C777.345032,582.711731 772.179565,586.996094 765.228210,589.035339 
	C760.448303,590.437500 755.492981,591.236511 750.626831,592.351990 
	C747.860474,592.986145 745.112854,593.694519 742.968140,595.761353 
	C740.248474,598.382202 738.857239,600.933289 740.926941,604.970337 
	C743.653015,610.287720 745.467712,616.051941 746.717651,621.947205 
	C748.829285,631.906433 744.904297,640.273560 735.940430,644.845398 
	C723.628479,651.124878 710.589417,650.163330 700.143738,639.279053 
	C687.523987,626.129456 670.971252,622.677734 655.028625,617.236267 
	C654.435730,617.033875 653.759399,617.076050 652.648254,616.950928 
	C654.150085,623.326172 656.480652,629.171753 657.328979,635.386475 
	C660.128418,655.894775 657.738342,675.934753 651.811707,695.605713 
	C650.231384,700.850769 649.925720,705.478210 651.900330,710.923157 
	C660.114685,733.574341 650.149170,752.960144 627.079712,760.535461 
	C615.049561,764.485962 602.680054,765.805420 590.109680,765.319397 
	C585.618225,765.145630 583.920105,765.953430 584.917358,771.149841 
	C587.232300,783.211975 586.927979,795.319519 583.575867,807.281677 
	C574.832031,838.484009 546.373901,852.648315 516.290894,840.579041 
	C512.285889,838.972168 508.097900,837.324768 504.726562,834.741089 
	C498.222565,829.756653 490.650085,827.499878 483.243896,824.559753 
	C440.905304,807.751892 414.885742,777.110901 408.188019,731.862732 
	C403.575958,700.704468 407.918060,670.098877 419.537964,640.675842 
	C419.954712,639.620605 420.797424,638.662292 420.331818,637.116699 
	C418.323212,636.198914 416.637939,637.694763 414.966522,638.387512 
	C409.776337,640.538574 404.565582,640.864441 399.422607,638.656372 
	C397.010803,637.620911 395.128662,638.009155 392.835510,638.953613 
	C349.825958,656.666931 306.315582,628.010437 297.140869,594.478638 
	C291.866394,575.201416 295.266296,556.796326 303.492584,539.096497 
	C307.052582,531.436646 311.114594,524.152466 312.457092,515.537292 
	C313.508820,508.787994 316.880157,502.621979 321.127350,497.158569 
	C323.006683,494.741211 323.232025,492.753845 321.534851,490.030396 
	C318.721710,485.516083 316.267761,480.762512 313.901672,475.991150 
	C312.624176,473.414917 311.245605,471.941895 308.123444,472.959869 
	C306.406006,473.519836 304.523560,473.654205 302.701263,473.792206 
	C300.196960,473.981934 298.445984,472.696442 297.898865,470.327545 
	C297.311005,467.782227 298.832489,466.201477 301.121063,465.438599 
	C302.369843,465.022308 303.718872,464.863678 305.036743,464.706909 
	C307.514740,464.412048 308.091064,463.004639 307.387604,460.841736 
	C306.305664,457.515289 305.160065,454.209595 304.078461,450.883057 
	C303.457855,448.974182 302.155060,448.298309 300.237762,448.541046 
	C297.069733,448.942139 293.755920,448.974457 293.354370,444.874725 
	C292.952972,440.777161 296.374573,440.309174 299.416199,439.797729 
	C299.883179,439.719177 300.320709,439.465454 301.201752,439.128204 
	C300.637482,433.261322 299.860352,427.357269 299.509033,421.419739 
	C297.508636,387.613068 306.690216,356.882446 324.582153,328.499023 
	C326.608276,325.284821 327.597412,322.326263 327.230988,318.298431 
	C325.188721,295.849030 324.761047,273.407654 329.657166,251.181885 
	C330.667908,246.593704 332.241119,242.222794 334.353058,238.046249 
	C339.419952,228.026093 347.802277,223.878906 359.046265,225.113342 
	C369.816498,226.295776 379.858765,229.506821 389.398590,234.513428 
	C390.837097,235.268387 392.193573,236.376984 394.069000,235.986252 
	C395.563141,234.434433 394.954773,232.495117 394.783081,230.787506 
	C392.743958,210.508987 405.252106,198.961456 422.849426,195.989990 
	C439.600098,193.161499 456.544220,191.958054 473.481049,190.729950 
	C483.143036,190.029327 492.797119,189.578796 502.388092,190.951111 
	C518.154480,193.207031 530.481018,200.187744 535.521118,216.496521 
	C535.658142,216.940018 536.071167,217.298203 536.796875,218.314041 
	C541.161621,213.356842 545.646606,208.787888 550.554382,204.657990 
	C557.771545,198.584763 565.698547,193.860992 574.568054,190.597748 
	C584.319885,187.009857 592.456238,189.204956 599.546509,196.607040 
	C605.541260,202.865463 609.393860,210.444443 612.963501,218.139297 
	C620.767578,234.961868 626.431824,252.555664 630.742493,270.567810 
	C631.500610,273.735413 633.035645,275.765320 635.490479,277.730255 
	C663.160583,299.878052 681.982727,327.849884 690.744873,362.358612 
	C691.357666,364.772217 691.905090,367.222565 692.208557,369.689575 
	C692.616089,373.002625 692.937500,376.064941 697.513062,375.887238 
	C699.121155,375.824799 700.186218,377.172363 700.528320,378.782349 
	C700.870056,380.390686 700.407166,382.267212 699.010437,382.694702 
	C693.246399,384.458893 694.217590,388.952972 694.310669,393.193298 
	C694.364990,395.666626 694.320557,398.142120 694.320557,400.121796 
	C695.508972,401.572510 696.586548,400.984619 697.524536,401.144043 
	C699.910156,401.549469 701.650757,402.891937 701.854797,405.309570 
	C702.071655,407.880463 700.097412,409.649231 697.962280,409.768738 
	C693.220642,410.034241 692.895203,413.395294 692.445190,416.660309 
	C687.264709,454.243652 666.181885,480.966614 635.065857,500.860352 
	C632.970520,502.200012 630.838074,503.481842 627.605103,505.482147 
	C638.784058,506.948486 648.883728,508.233124 659.204712,510.621399 
M535.742188,530.181580 
	C555.967224,525.887634 575.978882,520.858093 595.215942,513.113464 
	C620.848328,502.794098 644.493591,489.405701 662.615356,467.995697 
	C675.156921,453.178375 682.651062,435.917084 685.457092,416.654236 
	C685.931702,413.395752 685.036255,411.784058 681.499634,412.473206 
	C677.745056,413.204773 673.967468,413.828766 670.233826,414.653595 
	C665.847229,415.622711 661.506165,416.796448 657.127747,417.804810 
	C654.734131,418.356079 652.650879,417.689362 651.936035,415.194977 
	C651.214172,412.675995 652.763184,411.090210 654.981750,410.185883 
	C656.054626,409.748627 657.204163,409.484589 658.334656,409.206116 
	C666.575073,407.176392 674.822693,405.175446 683.059753,403.132416 
	C684.474304,402.781586 686.347168,402.714081 686.547852,400.836456 
	C687.015198,396.463318 687.828308,392.020874 686.037598,387.931366 
	C684.052979,387.301544 682.681274,388.104401 681.285156,388.532288 
	C672.680298,391.169708 664.318054,394.463867 656.016479,397.925140 
	C653.699890,398.891022 651.191589,399.151520 649.930969,396.487183 
	C648.576538,393.624695 650.319946,391.769806 652.838684,390.551544 
	C653.586914,390.189667 654.365479,389.886383 655.142944,389.589935 
	C663.389832,386.445801 671.637634,383.303955 679.888611,380.170807 
	C686.324402,377.726898 686.570984,377.073181 685.146362,370.202209 
	C677.742554,334.493958 659.362671,305.548920 631.046326,282.864227 
	C627.095459,279.699127 625.060547,276.028687 623.939575,271.366913 
	C620.314575,256.291718 615.558777,241.559860 609.654236,227.232086 
	C606.036804,218.454208 602.039185,209.793076 595.798645,202.472595 
	C589.709961,195.330246 584.548279,194.121704 575.866577,197.311539 
	C562.169922,202.343994 551.580688,211.536270 541.967651,222.164612 
	C539.195435,225.229614 537.819702,228.373840 538.342468,232.521194 
	C539.507690,241.764526 535.885620,249.050278 528.918640,254.969101 
	C527.482727,256.188934 525.493530,257.072418 524.993835,259.351807 
	C527.801514,261.462341 531.273254,262.828644 532.875000,266.140045 
	C534.424683,269.343933 536.452209,269.938202 539.676819,268.485657 
	C556.906067,260.724518 574.787842,263.596802 591.599121,268.237793 
	C630.477051,278.970703 653.895569,325.658020 641.042419,363.901581 
	C627.716614,403.551758 587.878357,425.579193 547.366028,415.729797 
	C545.218933,415.207764 542.954956,414.305725 540.673645,415.927826 
	C540.979431,416.805084 541.106812,417.461731 541.416565,418.016602 
	C550.172424,433.702606 542.354004,448.845459 529.379333,455.757782 
	C512.979858,464.494751 495.537903,466.769501 477.619934,461.414917 
	C463.145020,457.089172 456.557495,445.984406 458.491272,430.807953 
	C458.614075,429.843781 458.901306,428.813019 457.238373,427.479248 
	C443.532745,436.997467 428.353424,443.805298 411.029877,444.155487 
	C393.479553,444.510284 377.519867,439.472076 363.218231,429.292450 
	C348.987061,419.163025 339.489563,405.520447 334.432159,388.940674 
	C327.972931,367.765167 330.229065,347.143341 341.439362,328.194275 
	C357.079254,301.757721 381.811401,290.283722 412.258026,288.684387 
	C410.743652,279.956573 412.907379,272.537323 418.504578,265.761841 
	C408.380768,264.896210 403.001434,259.294769 399.680145,251.175995 
	C398.922546,249.324066 398.273621,247.404144 396.454926,246.252945 
	C384.054382,238.403625 371.025513,232.272552 355.979340,232.021454 
	C346.565735,231.864365 342.586914,234.388641 339.259216,243.222717 
	C331.872345,262.832703 331.230194,283.328674 332.979218,303.809326 
	C334.074799,316.638367 335.388947,328.975769 325.832581,339.440155 
	C325.393219,339.921234 325.125580,340.567230 324.813416,341.155273 
	C309.384338,370.219635 302.561310,400.859406 307.529510,433.765442 
	C308.245850,438.510010 310.129608,440.296692 314.974396,439.936829 
	C323.469849,439.305756 331.928650,440.719604 340.410767,441.114105 
	C343.137695,441.240906 346.100067,441.845703 346.004669,445.445953 
	C345.906677,449.144836 342.983063,449.321381 340.176453,449.197144 
	C337.183502,449.064728 334.193481,448.854980 331.204346,448.648071 
	C324.656677,448.194916 318.116821,447.870514 312.009888,448.523468 
	C311.093964,451.047089 311.785004,452.457855 312.154297,453.882965 
	C314.570648,463.208008 315.029633,463.367950 324.487335,462.180206 
	C330.589966,461.413788 336.753998,461.106781 342.898193,460.714111 
	C345.499084,460.547882 348.291016,460.818756 348.438477,464.222229 
	C348.580200,467.493195 346.036865,468.148254 343.331512,468.402466 
	C337.535065,468.947174 331.740356,469.523132 325.956787,470.189087 
	C319.871490,470.889771 319.418091,471.803955 322.149384,477.420471 
	C322.658203,478.466736 323.227753,479.487915 323.831665,480.482788 
	C326.845734,485.448090 329.409271,486.031982 334.454987,482.845245 
	C343.228851,477.303711 352.358704,472.453308 362.479004,469.939789 
	C385.630249,464.189911 405.773224,469.041718 421.559998,487.708038 
	C425.408966,492.259064 428.042847,497.890228 432.120728,502.183929 
	C440.066711,510.550446 445.111176,520.187744 447.475800,531.376831 
	C449.074005,538.939392 449.113007,538.961060 457.083435,538.972778 
	C483.349396,539.011536 509.173401,535.007080 535.742188,530.181580 
M521.435608,736.053284 
	C527.154663,743.473267 535.168335,747.468689 543.570984,750.882141 
	C556.894348,756.294678 570.984070,757.903137 585.128601,758.469421 
	C599.471741,759.043640 613.753357,757.927673 627.423645,752.864014 
	C639.279846,748.472412 646.428406,740.318787 647.485291,727.431458 
	C647.957581,721.672607 646.920532,715.985291 644.458557,710.899536 
	C641.963562,705.745789 642.529358,701.110352 644.223999,696.028992 
	C648.456238,683.338928 650.370056,670.180908 651.630066,656.903931 
	C652.020325,652.791687 650.889832,649.508423 647.921387,646.560181 
	C646.003296,644.655151 643.433899,643.025085 643.037354,640.007874 
	C644.661133,637.599731 647.545715,638.869446 649.492188,637.471619 
	C650.503845,633.678894 648.773315,630.291382 647.838379,626.815674 
	C639.791992,596.900879 610.891724,576.557861 580.270203,580.300049 
	C552.199524,583.730469 532.950073,599.197205 522.743469,625.740601 
	C521.713196,628.419922 521.741821,630.414185 524.064636,632.338318 
	C527.328125,635.041504 526.870667,637.462952 523.463013,639.892639 
	C520.229675,642.198059 517.081116,644.629639 516.399963,649.101746 
	C513.664307,667.064209 511.635773,685.096252 512.475403,703.282043 
	C512.995361,714.544250 513.223389,726.062439 521.435608,736.053284 
M472.808014,661.876099 
	C456.558990,658.121033 441.038574,652.439331 426.672485,643.757996 
	C424.119507,647.470276 423.068085,651.145386 421.942963,654.787537 
	C415.181610,676.675476 412.839905,699.096313 414.191376,721.899780 
	C415.272430,740.140808 420.269165,757.255493 430.105255,772.774719 
	C435.144226,780.725159 436.304779,781.046753 444.990906,776.861450 
	C450.835175,774.045410 456.437225,770.730225 462.242462,767.827942 
	C464.937317,766.480713 467.696228,764.818237 472.547028,765.990417 
	C461.693176,774.454651 450.816986,780.334900 439.017334,784.459473 
	C439.764893,786.900940 441.200348,788.086609 442.458069,789.383484 
	C449.920074,797.077698 458.145416,803.817078 467.519867,809.067261 
	C484.323425,818.478027 503.171173,823.668945 519.445190,834.180481 
	C519.583130,834.269592 519.747131,834.321045 519.902710,834.379883 
	C539.215515,841.679504 557.752075,837.090637 569.021667,821.348755 
	C580.865479,804.804810 580.639893,786.152222 576.889343,767.155334 
	C576.369568,764.522705 574.337280,764.480042 572.295227,764.315674 
	C565.814941,763.793945 559.393555,762.877380 553.095337,761.225281 
	C536.235962,756.802734 521.071106,749.801941 511.704346,733.984802 
	C510.599823,732.119568 508.908417,731.012451 508.435486,728.300659 
	C505.291901,710.275635 504.964386,692.234741 506.589050,674.068665 
	C507.134003,667.975159 506.010712,667.013977 499.715179,666.269287 
	C490.956848,665.233215 482.199493,664.179810 472.808014,661.876099 
M438.758301,520.789917 
	C436.834381,516.715271 435.011444,512.482544 431.752472,509.335236 
	C427.512115,505.240265 424.307678,500.482697 421.083893,495.611969 
	C416.533844,488.737396 410.652283,483.100647 403.238403,479.221130 
	C384.213379,469.265717 365.652527,472.765381 347.719269,481.867096 
	C330.775879,490.466370 320.904205,504.662537 317.166748,523.370667 
	C316.001404,529.203857 318.562592,536.357544 310.914398,540.403564 
	C308.015106,541.937317 307.457672,546.699402 306.311646,550.163635 
	C297.429474,577.012512 300.837555,601.956848 321.678986,620.026550 
	C350.551208,645.059082 392.246002,643.880920 417.605408,608.564209 
	C419.518921,605.899292 420.573700,603.073914 418.720734,599.654175 
	C417.809998,599.934998 417.034851,600.149048 416.276703,600.412170 
	C413.758911,601.286194 410.525421,604.224792 408.797119,600.938049 
	C406.950928,597.427063 411.482971,596.644409 413.586212,595.282898 
	C438.879639,578.909180 450.433716,549.319824 438.758301,520.789917 
M435.396423,642.143677 
	C456.549011,653.168762 479.022156,659.101807 502.873230,660.182312 
	C507.127808,660.375061 508.250000,659.132812 508.812805,655.209106 
	C510.800842,641.349670 513.637207,627.719360 519.820618,614.935913 
	C536.731995,579.973511 582.844971,560.073181 620.814087,582.327454 
	C623.039551,583.631897 625.251404,584.959534 628.091858,586.645752 
	C624.722107,574.107666 620.186584,562.871033 615.332825,551.744507 
	C614.597229,550.058289 612.601807,547.744263 615.267517,546.597534 
	C617.780884,545.516296 618.350708,548.481323 619.108337,550.147217 
	C624.354858,561.682312 628.943970,573.463562 632.077271,585.773621 
	C632.550354,587.632385 632.518799,589.748474 634.383545,591.149170 
	C636.503296,589.568359 636.758301,587.107056 637.402588,584.981812 
	C644.081604,562.952942 644.600220,540.426025 642.707825,517.704712 
	C642.490967,515.100647 641.069580,514.367554 638.819885,514.149414 
	C632.360840,513.523132 625.900818,512.891541 619.458069,512.120789 
	C616.905273,511.815399 614.594482,511.986938 612.209900,513.137451 
	C593.379639,522.222717 573.685547,528.828003 553.282776,533.336060 
	C551.374146,533.757812 549.812500,534.496826 548.996460,536.358948 
	C542.544739,551.082031 515.019775,553.712036 502.723480,545.185791 
	C500.384491,543.563904 498.093414,542.883728 495.270111,543.203918 
	C481.204132,544.799316 467.121826,546.287903 452.939056,546.149780 
	C449.860596,546.119812 448.814423,547.745911 448.528107,550.364380 
	C446.663116,567.420837 438.732025,581.291138 426.114166,592.604980 
	C423.677612,594.789673 423.247345,596.990906 423.711182,600.108032 
	C424.819458,607.556030 423.184235,614.678894 419.964050,621.414978 
	C419.247131,622.914673 418.603119,625.019348 416.173431,624.350159 
	C414.247375,622.590515 416.829132,620.910828 416.459534,620.010742 
	C412.212433,623.935608 407.779022,628.032593 403.095123,632.361145 
	C406.121704,633.347046 408.839233,633.116699 411.518890,632.041748 
	C414.466187,630.859497 417.306030,629.452576 419.811188,627.474365 
	C426.476562,622.211121 433.131989,616.934875 439.762238,611.627502 
	C441.606812,610.150940 443.526062,609.019531 445.393463,611.278503 
	C447.074341,613.311768 445.690674,615.009827 444.196350,616.474365 
	C443.485962,617.170532 442.680817,617.776611 441.882782,618.375793 
	C437.412170,621.732544 433.948364,625.827209 431.530792,630.956543 
	C428.208221,638.006042 428.041687,637.927551 435.396423,642.143677 
M743.676758,536.298035 
	C738.386475,537.538086 734.621033,536.139587 731.845276,531.000244 
	C729.845276,527.297180 725.918152,525.356995 721.712402,524.240784 
	C713.604553,522.088806 706.719360,525.363525 699.815491,528.812683 
	C698.129639,529.654968 696.684448,531.139465 694.350342,529.743530 
	C682.275513,522.522034 668.570312,520.143860 655.164062,516.957214 
	C649.683533,515.654541 648.973572,516.218506 649.208679,521.985840 
	C649.737549,534.961426 650.296326,547.895569 648.186340,560.819458 
	C646.236633,572.761658 644.821350,584.805115 638.809387,595.739441 
	C641.442993,599.415649 644.141785,603.192993 646.853516,606.961060 
	C647.562561,607.946350 648.547852,608.456909 649.727539,608.790588 
	C659.335449,611.508301 668.937561,614.247498 678.520081,617.053101 
	C680.609192,617.664795 682.161255,617.373352 684.002319,615.987549 
	C686.397644,614.184631 688.788818,611.955444 692.393127,611.806152 
	C692.903015,615.746582 689.165588,617.736633 688.742126,621.584778 
	C695.286743,623.565125 698.987671,629.368713 703.951477,633.677673 
	C708.556091,637.674866 713.826843,640.459595 719.936829,641.399109 
	C733.278809,643.450562 742.574158,633.345703 739.015625,620.449341 
	C737.736084,615.812378 736.240112,611.127075 734.037292,606.881836 
	C731.608093,602.200012 732.444336,598.342590 735.026306,594.266968 
	C737.985535,589.596069 742.424561,587.132996 747.530640,585.802429 
	C752.197144,584.586426 756.973877,583.799866 761.680664,582.730164 
	C768.372070,581.209351 772.569336,577.185364 773.606201,570.272339 
	C774.302612,565.629028 774.232910,560.931580 773.347900,556.339600 
	C771.674438,547.656616 766.754150,541.591125 758.261719,538.627197 
	C753.822021,537.077698 749.275513,536.209167 743.676758,536.298035 
M522.970032,252.465378 
	C531.700439,246.756165 534.298340,238.556030 532.682190,228.624832 
	C531.876038,223.670822 530.374023,218.922989 528.357666,214.349808 
	C525.849548,208.661285 521.638977,204.536972 516.283569,201.446823 
	C512.101501,199.033676 507.905945,198.668839 503.356110,200.348938 
	C502.264191,200.752167 500.399078,200.520035 499.518799,199.805206 
	C493.042938,194.546753 485.632507,196.568420 478.429199,196.755219 
	C472.218628,196.916306 466.284485,200.283920 460.333496,199.719635 
	C448.172638,198.566559 436.416290,200.705826 424.584137,202.311630 
	C411.015900,204.153076 400.474152,211.895096 401.138916,228.168488 
	C401.328583,232.811462 401.653625,237.492523 402.465485,242.058517 
	C405.208252,257.485168 412.429749,262.162964 427.500092,258.410431 
	C440.110535,255.270447 452.354889,250.911026 464.730194,246.989365 
	C466.145782,246.540756 467.602600,246.132629 469.070007,245.964279 
	C470.343384,245.818176 471.319702,246.526947 471.617218,247.858490 
	C471.872559,249.001205 471.260376,249.831284 470.325806,250.303543 
	C469.296661,250.823547 468.172333,251.159332 467.080719,251.551071 
	C454.241638,256.158661 441.262695,260.416290 428.605896,265.479218 
	C419.112274,269.276794 415.980438,276.618134 418.030945,286.540497 
	C418.547577,289.040466 419.560547,290.335419 422.072662,290.775482 
	C432.213104,292.551697 441.540070,296.451904 450.216705,301.929840 
	C452.113831,303.127563 453.973755,303.850616 456.300690,303.527832 
	C470.819000,301.513947 485.213776,298.841125 499.466553,295.438385 
	C502.006348,294.832031 504.803192,294.378967 506.604919,292.147095 
	C511.992432,285.473419 518.712769,280.298798 525.389709,275.041077 
	C526.982239,273.787018 530.139160,273.131409 528.689209,269.805817 
	C527.426025,266.908508 525.572266,264.712280 522.229065,264.191345 
	C518.612549,263.627869 515.319275,264.753326 512.043213,266.039917 
	C498.413788,271.392548 484.783112,276.742035 471.147308,282.078461 
	C469.445312,282.744537 467.420227,283.762177 466.373962,281.439392 
	C465.341003,279.146118 467.340179,278.160370 469.036682,277.441620 
	C473.633942,275.493866 478.312408,273.736389 482.897736,271.762024 
	C496.306946,265.988220 510.717377,262.298523 522.970032,252.465378 
M606.784790,400.292175 
	C629.417053,384.008789 640.591736,362.177917 637.923157,334.141266 
	C633.896240,291.832642 595.120667,262.472168 553.762878,270.474060 
	C525.813232,275.881744 506.652863,292.472046 498.479950,319.578156 
	C489.686646,348.741669 497.542847,374.434448 520.289062,394.702789 
	C544.188171,415.998474 577.597961,417.929962 606.784790,400.292175 
M352.785400,411.706238 
	C366.706451,428.644928 384.542816,437.567017 406.540833,438.075348 
	C451.983429,439.125336 487.076752,398.175751 478.610992,353.465973 
	C473.297211,325.402344 456.292633,306.565247 429.355743,298.315674 
	C402.445312,290.074158 377.915497,296.317596 357.529663,316.193970 
	C333.120056,339.993530 329.325378,381.746338 352.785400,411.706238 
M511.869019,396.602417 
	C505.294464,391.480560 503.074402,382.924988 496.797668,377.386353 
	C494.085144,380.319183 491.693726,379.155945 489.836914,376.586731 
	C487.678284,373.599854 489.140228,368.395142 492.483093,366.078522 
	C492.694427,363.423157 489.890167,363.414734 489.325012,362.671021 
	C492.324280,356.328918 488.934753,350.811401 489.398743,345.366699 
	C487.082458,344.773773 485.555237,345.116516 483.267914,346.736816 
	C490.800537,371.799561 483.755402,394.596649 469.261932,416.148712 
	C485.202179,414.237457 501.710327,419.211304 515.684387,408.418365 
	C514.909912,406.855896 513.002136,405.387787 514.165222,403.501526 
	C515.997559,400.529694 514.132263,398.890228 511.869019,396.602417 
M462.998169,307.947296 
	C458.716827,309.158752 461.856689,310.800781 462.913239,311.930084 
	C468.974243,318.408447 474.447479,325.296936 478.116608,333.435974 
	C479.369354,336.214813 481.252228,337.122589 484.096649,336.429443 
	C486.773010,335.777222 489.585846,335.779144 489.981262,331.741394 
	C490.947205,321.878082 493.963867,312.567291 498.613373,303.794342 
	C498.874237,303.302094 498.745636,302.603485 498.847656,301.436432 
	C486.873749,303.671783 475.390747,306.298492 462.998169,307.947296 
M507.096436,444.557678 
	C498.226227,446.159637 489.966125,448.826630 483.744385,457.812927 
	C500.269043,459.870850 514.695251,457.799591 528.168640,449.296722 
	C521.786987,445.827759 515.125183,444.088867 507.096436,444.557678 
z"/>
<path fill="#000000" opacity="1.000000" stroke="none" 
	d="
M573.478088,236.406952 
	C576.154053,239.597260 574.936951,249.692917 571.929260,251.869156 
	C569.965332,253.290176 567.938477,252.989227 566.762268,251.013779 
	C564.394714,247.037231 567.012390,243.352188 568.010620,239.641846 
	C568.660034,237.227951 570.198059,235.516342 573.478088,236.406952 
z"/>
<path fill="#000000" opacity="1.000000" stroke="none" 
	d="
M368.122803,277.693756 
	C367.297760,276.208527 366.536438,275.099854 366.070770,273.878448 
	C365.417297,272.164398 365.814850,270.581940 367.406097,269.531891 
	C368.991821,268.485474 370.668976,268.652405 371.917114,270.004028 
	C374.511108,272.813202 376.344055,276.152039 377.881195,279.627502 
	C378.555450,281.151917 378.075378,282.583527 376.652557,283.518555 
	C375.087219,284.547241 373.372803,284.519409 372.125336,283.163727 
	C370.689178,281.602997 369.573364,279.747498 368.122803,277.693756 
z"/>
<path fill="#000000" opacity="1.000000" stroke="none" 
	d="
M526.722534,372.202728 
	C514.446838,353.560822 514.741272,329.541046 527.250427,312.824829 
	C541.271301,294.088501 565.313904,291.476013 582.944580,306.773193 
	C603.458130,324.571716 604.588501,359.416229 585.270020,378.454803 
	C568.266174,395.212280 541.845520,392.517578 526.722534,372.202728 
M531.299133,330.184662 
	C527.294678,328.150177 524.893677,330.072418 523.567078,333.650452 
	C521.979248,337.933105 523.914490,343.498199 527.145020,344.500458 
	C529.721741,345.299866 531.716248,344.275909 533.057495,342.033691 
	C535.493225,337.961792 535.067810,334.143951 531.299133,330.184662 
z"/>
<path fill="#000000" opacity="1.000000" stroke="none" 
	d="
M414.292908,413.223511 
	C393.141693,409.966705 376.645752,391.864868 374.537537,371.025940 
	C373.441132,360.188599 374.906830,350.100220 380.192322,340.686646 
	C391.003296,321.432037 415.362427,315.707275 433.778625,327.922729 
	C453.512390,341.012146 461.742920,366.730347 453.035187,388.719818 
	C446.794037,404.480408 433.004456,414.790222 414.292908,413.223511 
M388.459900,361.839600 
	C390.420776,360.301971 391.209900,358.103271 391.536194,355.794159 
	C392.009583,352.444000 391.296173,349.435089 387.853973,347.919556 
	C385.239166,346.768311 383.236786,348.230560 381.902039,350.194977 
	C379.625458,353.545624 379.021637,357.390167 381.081024,360.977020 
	C382.594879,363.613708 385.174469,364.174805 388.459900,361.839600 
z"/>
<path fill="#000000" opacity="1.000000" stroke="none" 
	d="
M500.699890,401.037811 
	C504.189301,401.751251 506.542450,403.260162 506.011292,406.799957 
	C505.500763,410.202148 502.807159,411.252563 499.756104,411.322998 
	C496.553162,411.396973 493.530609,412.300964 490.443665,412.949768 
	C487.489960,413.570526 484.910248,412.757416 484.064240,409.691162 
	C483.165894,406.435333 484.900482,404.066223 488.049103,403.287811 
	C492.070435,402.293701 496.202606,401.747650 500.699890,401.037811 
z"/>
</svg>